<?xml version="1.0" encoding="utf-8"?>
<!-- Generator: Adobe Illustrator 27.5.0, SVG Export Plug-In . SVG Version: 6.00 Build 0)  -->
<svg version="1.1" id="Capa_1" xmlns="http://www.w3.org/2000/svg" xmlns:xlink="http://www.w3.org/1999/xlink" x="0px" y="0px"
	 viewBox="0 0 1990 2262" style="enable-background:new 0 0 1990 2262;" xml:space="preserve">
<g>
	<path style="fill:#CAD7DB;" d="M1626.188,1995.019h-10.758v-195.147c6.621-6.469,10.758-15.47,10.758-25.4V279.95
		c0-19.559-16.002-35.562-35.562-35.562H503.728c0,0-123.124-5.877-150.618,100.511v1538.053c0,141.652,86.068,134.48,86.068,134.48
		h1187.01c5.796-0.958,10.227-3.02,10.31-9.413C1636.657,1995.916,1626.188,1995.019,1626.188,1995.019z"/>
	<path style="fill:#C25857;" d="M1626.188,1995.019h-10.758v-21.815H396.182c-23.277-31.62-20.606-86.279-20.606-86.279
		c2.391-90.251,128.152-76.891,128.152-76.891h1086.897c9.63,0,18.385-3.891,24.804-10.163c6.621-6.469,10.758-15.47,10.758-25.4
		V279.95c0-19.559-16.002-35.562-35.562-35.562H503.728c0,0-123.124-5.877-150.618,100.511v1538.053
		c0,141.652,86.068,134.48,86.068,134.48h1187.01c5.796-0.958,10.227-3.02,10.31-9.413
		C1636.657,1995.916,1626.188,1995.019,1626.188,1995.019z"/>
	<g>
		<path style="fill:#923A3B;" d="M503.728,1793.299V244.388c0,0-123.124-5.877-150.618,100.511v1538.053
			C353.11,1882.952,353.11,1787.92,503.728,1793.299z"/>
		<rect x="654.346" y="552.496" style="fill:#923A3B;" width="763.847" height="340.683"/>
	</g>
	<path style="fill:#E99F34;" d="M410.072,418.787c21.15-9.926,43.574-15.194,61.16-17.857c17.587-2.677,30.313-2.79,32.117-2.788
		l0.185,0h0.003l0.071,0.001h0.12v-30.482l-0.378-0.001c-5.263,0.048-45.842,0.377-89.679,16.607
		c-20.639,7.683-42.073,19.06-60.56,36.027v47.707c5.113-8.602,11.133-16.154,17.903-22.8
		C382.439,434.038,395.958,425.397,410.072,418.787z"/>
	<path style="fill:#E99F34;" d="M417.503,501.745c21.207-12.383,43.137-18.938,59.654-22.291c8.254-1.68,15.145-2.569,19.884-3.032
		c2.37-0.232,4.201-0.357,5.397-0.424c0.592-0.033,1.021-0.05,1.289-0.061v-30.489h-0.141l-0.153,0.003
		c-1.232,0.077-40.669,0.766-84.665,21.263c-21.967,10.271-45.12,25.646-64.541,48.612c-0.382,0.451-0.738,0.953-1.117,1.411v59.154
		c6.527-16.181,14.899-29.628,24.393-40.883C389.515,520.804,403.35,510.001,417.503,501.745z"/>
	<path style="fill:#E99F34;" d="M410.072,1612.746c21.151-9.926,43.574-15.194,61.16-17.856c17.587-2.678,30.313-2.791,32.117-2.788
		l0.165,0h0.001l0.071,0.001h0.14v-30.481l-0.378-0.002c-5.263,0.048-45.841,0.376-89.679,16.607
		c-20.638,7.683-42.072,19.06-60.56,36.027v47.707c5.113-8.602,11.135-16.154,17.905-22.8
		C382.439,1627.997,395.958,1619.356,410.072,1612.746z"/>
	<path style="fill:#E99F34;" d="M417.503,1695.704c21.207-12.383,43.137-18.938,59.654-22.29c8.254-1.68,15.145-2.569,19.884-3.032
		c2.37-0.231,4.201-0.357,5.397-0.424c0.592-0.033,1.021-0.051,1.289-0.062v-30.489h-0.141l-0.153,0.003
		c-1.232,0.077-40.669,0.766-84.665,21.262c-21.967,10.271-45.12,25.646-64.541,48.612c-0.382,0.452-0.738,0.953-1.117,1.411v59.155
		c6.527-16.181,14.899-29.627,24.393-40.883C389.515,1714.763,403.35,1703.96,417.503,1695.704z"/>
	<path style="fill:#E26C6D;" d="M1626.188,1995.019H435.591c-17.957-1.071-30.553-9.783-39.409-21.815
		c-23.277-31.62-20.606-86.279-20.606-86.279c2.391-90.251,128.152-76.891,128.152-76.891h1086.897
		c9.63,0,18.385-3.891,24.804-10.163c6.621-6.469,10.758-15.47,10.758-25.4v-16.735c0,19.559-16.002,35.562-35.562,35.562H503.728
		c-150.618-5.379-150.618,89.653-150.618,89.653c0,141.652,86.068,134.48,86.068,134.48h1187.01
		c5.796-0.958,10.227-3.02,10.31-9.413C1636.657,1995.916,1626.188,1995.019,1626.188,1995.019z"/>
	<path style="fill:#AAB8BC;" d="M478.088,1887.605c88.317-27.438,184.301-35.53,276.259-39.571
		c99.612-4.377,199.347-1.14,298.956,1.63c98.871,2.749,197.189,2.198,296.047-0.447c49.405-1.321,99.651-3.01,148.82,2.842
		c38.865,4.625,78.013,12.994,117.259,13.467v-65.655c-6.419,6.271-15.175,10.163-24.804,10.163H503.728
		c0,0-125.761-13.36-128.152,76.891c0,0-1.038,21.265,3.828,44.939C410.188,1913.58,442.961,1898.519,478.088,1887.605z"/>
</g>
</svg>
